# xmcd
#
# Track frame offsets:
#	150
#	12310
#	21495
#	33899
#	45637
#	55184
#	62178
#	72521
#	83768
#	95486
#	107236
#	117353
#	129752
#	139475
#	148685
#	160219
#	170702
#	181379
#	191936
#	201896
#	213160
#	224598
#	235563
#	246271
#	254941
#	274202
#	285271
#	296961
#	308436
#	319685
#	331855
#	343501
#	356935
#	367571
#	379912
#	391983
#
# Disc length: 5370 seconds
#
# Revision: 0
# Processed by: cddbd v1.5.2PL0 Copyright (c) Steve Scherf et al.
# Submitted via: audiograbber 1.83.01
#
DISCID=3b14f824
DTITLE=Chuck Berry - Rock And Roll Music - Any Old Way You Choose It [CD 06) - 
DTITLE=Studio 1966-1967
DYEAR=2014
DGENRE=Rock and Roll
TTITLE0=Ramona, Say Yes [mono 1966]
TTITLE1=Viva (Viva) Rock And Roll [1971]
TTITLE2=His Daughter Caroline [fast version] [2009]
TTITLE3=Lonely School Days [fast version] [1966]
TTITLE4=Campus Cookie [instrumental] [1989]
TTITLE5=Mum's The Word [1968]
TTITLE6=My Tambourine [1968]
TTITLE7=Laugh And Cry [1967]
TTITLE8=Maybelline [1967]
TTITLE9=School Days [1967]
TTITLE10=Sweet Little Sixteen [1967]
TTITLE11=Johnny B. Goode [1967]
TTITLE12=Memphis [1967]
TTITLE13=Roll Over Beethoven [1967]
TTITLE14=Rock 'n' Roll Music [1967]
TTITLE15=Club Nitty Gritty [mono 1967]
TTITLE16=Around And Around [1989]
TTITLE17=Oh Captain [2014]
TTITLE18=Thirty Days [1967]
TTITLE19=Back In The USA [1967]
TTITLE20=Misery [1968]
TTITLE21=Carol [1967]
TTITLE22=Brown Eyed Handsome Man [1989]
TTITLE23=Let It Rock [1983]
TTITLE24=Reelin' And Rockin' [1972]
TTITLE25=Almost Grown [1989]
TTITLE26=Ramblin' Rose [1967]
TTITLE27=Check Me Out [1967]
TTITLE28=I Do Really Love You [1967]
TTITLE29=Back To Memphis [1967]
TTITLE30=Bring Another Drink [1967]
TTITLE31=It Hurts Me Too [1967]
TTITLE32=Goodnight, Well It's Time To Go [1967]
TTITLE33=So Long [1967]
TTITLE34=My Heart Will Always Belong To You [1967]
TTITLE35=Flying Home [instrumental] [1989]
EXTD=
EXTT0=
EXTT1=
EXTT2=
EXTT3=
EXTT4=
EXTT5=
EXTT6=
EXTT7=
EXTT8=
EXTT9=
EXTT10=
EXTT11=
EXTT12=
EXTT13=
EXTT14=
EXTT15=
EXTT16=
EXTT17=
EXTT18=
EXTT19=
EXTT20=
EXTT21=
EXTT22=
EXTT23=
EXTT24=
EXTT25=
EXTT26=
EXTT27=
EXTT28=
EXTT29=
EXTT30=
EXTT31=
EXTT32=
EXTT33=
EXTT34=
EXTT35=
PLAYORDER=
